<?xml version="1.0" encoding="UTF-8"?>
<svg width="1221px" height="352px" viewBox="0 0 1221 352" version="1.1" xmlns="http://www.w3.org/2000/svg" xmlns:xlink="http://www.w3.org/1999/xlink">
    <!-- Generator: Sketch 62 (91390) - https://sketch.com -->
    <title>Onfleet Logo</title>
    <desc>Created with Sketch.</desc>
    <g id="Onfleet-Logo" stroke="none" stroke-width="1" fill="none" fill-rule="evenodd">
        <g id="Logo" transform="translate(111.000000, 94.000000)" fill="#3A4554">
            <path d="M447.896269,37.5958681 C421.485609,37.5958681 400,59.0687762 400,85.4638229 C400,111.85887 421.485609,133.333333 447.896269,133.333333 C474.308485,133.333333 495.794094,111.85887 495.794094,85.4638229 C495.794094,59.0687762 474.308485,37.5958681 447.896269,37.5958681 L447.896269,37.5958681 Z M975.612907,12.4453571 L975.612907,41.7432834 L1000,41.7432834 L1000,51.0773012 L975.612907,51.0773012 L975.612979,94.7473067 C975.63081,96.7931576 976.049293,109.669256 983.66826,117.4235 C987.715393,121.544469 993.057609,123.546616 1000,123.546616 L1000,123.546616 L1000,132.880633 C990.526594,132.880633 982.77322,129.86419 976.954688,123.913754 C965.982286,112.691153 966.257802,95.107419 966.274925,94.3638089 L966.274925,94.3638089 L966.273368,51.0773012 L947.075946,51.0773012 L947.075946,41.7432834 L966.273368,41.7432834 L966.273368,12.4453571 L975.612907,12.4453571 Z M779.644475,37.9847856 C804.789627,37.9847856 825.542082,57.6235591 826.890089,82.6947309 L826.890089,82.6947309 L827.142257,87.40841 L741.341469,87.40841 C742.454431,107.558999 759.21112,123.610398 779.644475,123.610398 C792.280871,123.610398 804.968635,117.552621 811.970176,108.175044 L811.970176,108.175044 L819.142942,113.526548 C810.511651,125.085173 795.008016,132.555499 779.644475,132.555499 C753.557586,132.555499 732.331927,111.342387 732.331927,85.2709199 C732.331927,59.1963411 753.557586,37.9847856 779.644475,37.9847856 Z M889.644008,37.9847856 C914.787603,37.9847856 935.540059,57.6235591 936.889622,82.6947309 L936.889622,82.6947309 L937.143346,87.40841 L851.339446,87.40841 C852.452407,107.558999 869.209097,123.610398 889.644008,123.610398 C902.280404,123.610398 914.968168,117.552621 921.969709,108.175044 L921.969709,108.175044 L929.142475,113.526548 C920.511184,125.085173 905.007549,132.555499 889.644008,132.555499 C863.555562,132.555499 842.329904,111.342387 842.329904,85.2709199 C842.329904,59.1963411 863.555562,37.9847856 889.644008,37.9847856 Z M710.085145,0.777834819 L710.085145,131.454084 L700.745607,131.454084 L700.745607,0.777834819 L710.085145,0.777834819 Z M559.290506,38.5028235 C584.07453,38.5028235 604.237037,58.6534124 604.237037,83.4227843 L604.237037,83.4227843 L604.237037,131.454084 L594.897499,131.454084 L594.897499,83.4227843 C594.897499,63.8011232 578.923774,47.8368414 559.290506,47.8368414 C539.657239,47.8368414 523.683514,63.8011232 523.683514,83.4227843 L523.683514,83.4227843 L523.683514,131.454084 L514.343975,131.454084 L514.343975,83.4227843 C514.343975,58.6534124 534.506483,38.5028235 559.290506,38.5028235 Z M680.120791,0 L680.120791,9.33401783 L672.337842,9.33401783 C665.48729,9.33401783 660.197998,11.3361647 656.167987,15.4555779 C647.974098,23.8300522 647.94141,37.9868903 647.950059,38.9904723 L647.950749,41.7432834 L680.120791,41.7432834 L680.120791,51.0773012 L647.950749,51.0773012 L647.950749,130.936046 L638.611211,130.936046 L638.611211,51.0773012 L621.748673,51.0773012 L621.748673,41.7432834 L638.611211,41.7432834 L638.611211,39.1515378 C638.595645,38.4888225 638.317015,20.3497145 649.48866,8.93109939 C655.286957,3.00555374 662.973398,0 672.337842,0 L672.337842,0 L680.120791,0 Z M447.896269,46.5409686 C469.372539,46.5409686 486.843703,64.0018046 486.843703,85.4638229 C486.843703,106.925841 469.372539,124.388233 447.896269,124.388233 C426.421556,124.388233 408.948835,106.925841 408.948835,85.4638229 C408.948835,64.0018046 426.421556,46.5409686 447.896269,46.5409686 Z M779.644475,46.929886 C760.815964,46.929886 745.11153,60.557552 741.887832,78.4617539 L741.887832,78.4617539 L817.407344,78.4617539 C814.188316,60.4424324 798.427844,46.929886 779.644475,46.929886 Z M889.644008,46.929886 C870.815497,46.929886 855.109506,60.557552 851.885809,78.4617539 L851.885809,78.4617539 L927.406877,78.4617539 C924.186293,60.4424324 908.425821,46.929886 889.644008,46.929886 Z" id="Wordmark"></path>
            <path d="M176.102694,93.091244 C180.375917,97.1963738 186.843644,102.893931 195.308678,109.772847 C203.80085,116.546219 214.737189,124.154689 228.065231,130.04667 C234.750057,132.83527 242.131407,135.01097 249.72262,135.342417 C253.492898,135.366489 257.321069,135.222059 260.961088,134.159207 C262.828136,133.801836 264.554069,132.964886 266.337895,132.305695 C268.033073,131.411344 269.762625,130.5818 271.336589,129.402293 C274.515274,127.141416 277.516661,124.419476 280.035005,121.03279 C282.562393,117.666473 284.733379,113.846499 286.533488,109.708039 C290.012492,101.358905 292.127394,91.8321154 292.460278,81.944252 C292.896284,72.0804603 291.64254,61.83893 288.585069,52.3251019 C285.408194,42.9094118 280.272004,34.2066108 273.15479,28.9386387 C266.104514,23.6595566 257.293932,21.7801219 247.557062,23.3484777 C242.713955,24.2206095 237.735162,25.5371396 232.794361,27.7350598 C230.312201,28.664593 227.866224,30.0459312 225.384064,31.1624821 C222.954369,32.5456719 220.490301,33.8455371 218.07327,35.3324199 C208.385248,41.2799512 199.129613,48.6754804 190.152588,56.607991 C185.736442,60.6964559 181.285921,64.7589975 177.038027,69.1326179 C174.876087,71.26573 172.732239,73.4247653 170.666184,75.6893452 L164.252731,82.5367832 C155.872727,91.572883 146.289636,101.214476 136.617896,109.791364 C126.833988,118.453428 116.306517,126.41001 104.867233,133.240783 C93.4351854,140.010452 80.7367296,145.582096 66.5800952,147.554114 C59.5442932,148.579933 52.0127828,148.296629 44.734554,146.552366 C37.4400428,144.819212 30.489271,141.297355 24.7669152,136.631173 C19.0138037,131.970545 14.4782532,126.278543 11.0155314,120.32916 C7.53471802,114.368667 5.09235937,108.115612 3.37366255,101.86626 C1.68572135,95.6076497 0.735915207,89.3397813 0.283626568,83.1626442 C-0.175898688,76.9855071 -0.080013497,70.8805847 0.592991997,64.9237952 C1.83226287,53.015771 5.00913827,41.6095467 10.2086485,31.3957912 C12.8807697,26.3203917 16.0576451,21.5634777 19.7736486,17.3213251 C23.489652,13.0773208 27.8967525,9.47399085 32.6403558,6.70761112 C37.3622492,3.87457162 42.5635685,2.10438486 47.6545294,1.20632985 C52.7635819,0.174955347 57.7948407,0.354566347 62.5221616,0.854514493 C71.973185,2.17474793 80.1107621,5.55032374 87.1773198,9.31104479 C101.227214,17.0917193 111.362098,26.3981614 119.21202,34.3084521 C127.045659,42.2687375 132.569008,49.0495157 136.283202,53.6860719 C139.915984,58.3874361 141.853589,60.8945835 141.853589,60.8945835 C141.853589,60.8945835 139.563199,58.7262898 135.268266,54.6581933 C131.009516,50.5771351 124.507415,44.8499513 116.038762,37.99881 C107.532118,31.2495101 96.5813052,23.6688149 83.2333629,17.8490481 C76.5376819,15.1048883 69.1509038,12.9902928 61.566928,12.7292088 C54.0317992,12.586631 46.3609839,14.2586798 39.9963782,18.8767193 C36.8267394,21.1635192 33.8289703,23.902124 31.3051997,27.2925131 C28.7778108,30.6699406 26.6013979,34.4917664 24.7904342,38.6283744 C21.2788652,46.9738051 19.1386353,56.4950398 18.7587129,66.3773481 C18.2756686,76.2337332 19.4769472,86.4789669 22.5072811,95.9853883 C25.6497826,105.395523 30.7515984,114.092769 37.8597667,119.299637 C44.8901413,124.519466 53.6989148,126.350757 63.4466395,124.71389 C64.6442999,124.619455 65.8835707,124.18987 67.10475,123.958413 C68.3277385,123.71029 69.5561545,123.414025 70.791807,122.967775 L74.502383,121.775306 L78.2111499,120.255093 C79.4576573,119.799585 80.6915008,119.229274 81.9199167,118.601561 L85.6250652,116.809154 C88.0638056,115.448184 90.51521,114.096473 92.9394771,112.635513 C102.620263,106.6528 111.906653,99.2980077 120.878251,91.3395739 C129.905932,83.2089357 138.06341,74.9283131 146.805245,65.4589249 L153.356193,58.5448272 C155.556125,56.167296 157.85737,53.8693862 160.185752,51.5955479 C164.741203,46.9663985 169.589737,42.5761131 174.403898,38.1802727 C184.214943,29.5348731 194.733367,21.5634777 206.192552,14.741963 C217.619172,7.95562982 230.384567,2.45990354 244.553865,0.543435646 C251.604141,-0.439795707 259.135651,-0.106496943 266.397597,1.6877614 C273.672208,3.48016809 280.577751,7.03720656 286.267542,11.7070926 C291.98628,16.3751269 296.503738,22.0504642 299.964651,27.9831822 C303.445464,33.9270102 305.886014,40.1671037 307.630039,46.3997906 C309.328835,52.6472907 310.314824,58.9021975 310.792441,65.0737796 C311.289959,71.2472134 311.199501,77.3484324 310.55906,83.3070737 C309.375873,95.2169495 306.253272,106.645394 301.068235,116.875814 C298.406969,121.960472 295.233712,126.728496 291.506854,130.9725 C287.798087,135.227614 283.352994,138.816131 278.58949,141.556588 C276.228543,142.989772 273.686681,144.004482 271.195475,145.00623 C268.626476,145.767262 266.104514,146.633839 263.52466,146.944918 C258.408371,147.918891 253.378921,147.718911 248.667883,147.143045 C239.238569,145.745042 231.137175,142.315768 224.097755,138.519866 C210.09128,130.685493 199.987152,121.354979 192.146276,113.439134 C184.336156,105.476996 178.782052,98.66474 175.085949,94.0467005 C171.454976,89.3490396 169.517371,86.8455955 169.517371,86.8455955 C169.517371,86.8455955 171.807761,89.0175925 176.102694,93.091244 Z"></path>
        </g>
    </g>
</svg>